<?xml version="1.0" encoding="utf-8"?>
<!-- Generator: Adobe Illustrator 21.1.0, SVG Export Plug-In . SVG Version: 6.00 Build 0)  -->
<svg version="1.1" id="Layer_1" xmlns="http://www.w3.org/2000/svg" xmlns:xlink="http://www.w3.org/1999/xlink" x="0px" y="0px"
	 viewBox="0 0 125 50" style="enable-background:new 0 0 125 50;" xml:space="preserve">
<style type="text/css">
	.st0{fill:#0A5891;}
	.st1{fill:#3190CE;}
	.st2{fill:#FFFFFF;}
	.st3{fill:#518133;}
</style>
<path class="st0" d="M35.8,27.9c0,2.2-1.8,4-4,4H7.3c-2.2,0-4-1.8-4-4V7.6c0-2.2,1.8-4,4-4h24.4c2.2,0,4,1.8,4,4V27.9z"/>
<path class="st1" d="M35.8,27.9c0,2.2-1.8,4-4,4H7.3c-2.2,0-4-1.8-4-4V7.6c0-2.2,1.8-4,4-4h24.4c2.2,0,4,1.8,4,4V27.9z"/>
<path class="st0" d="M11.3,24.1l24.5,3.8c0,2.2-1.8,4-4,4H7.3c-2.2,0-4-1.8-4-4l0.1-0.6l3.4-1.8L11.3,24.1z"/>
<g>
	<g>
		<path class="st2" d="M3.2,25.8c9.7-6.6,21.3-7.7,32.7-7c0.9,0.1,2.5-1.2,0.9-1.3c-12.2-0.7-24.7,0.6-35.1,7.6
			C0.5,26.1,2.5,26.3,3.2,25.8L3.2,25.8z"/>
	</g>
</g>
<g>
	<g>
		<path class="st2" d="M3.4,27.8c9.3-5.2,22.4-0.9,32.2,1.1c1,0.2,4.1-1.3,2.2-1.7c-11.5-2.4-25.4-6.4-36.4-0.2
			C-0.8,28.1,2.3,28.4,3.4,27.8L3.4,27.8z"/>
	</g>
</g>
<g>
	<g>
		<path class="st1" d="M41.1,6.8h2.7l1.3,7.5h0l1.3-7.5h3.3l1.4,7.5h0l1.3-7.5h2.5l-2.2,9.8h-3.4L47.9,9h0l-1.3,7.5h-3.4L41.1,6.8z"
			/>
		<path class="st1" d="M57.6,13.6c0.1,1,0.9,1.4,2.1,1.4c0.7,0,1.5-0.2,2.2-0.6v1.8c-0.8,0.3-1.7,0.5-2.7,0.5
			c-2.4,0-4.2-1.4-4.2-3.8c0-2.4,1.6-3.8,3.9-3.8c2.7,0,3.7,1.9,3.7,4.1v0.5C62.6,13.6,57.6,13.6,57.6,13.6z M60.3,12.2
			c0-0.8-0.4-1.5-1.4-1.5c-0.9,0-1.3,0.7-1.4,1.5H60.3z"/>
		<path class="st1" d="M63.7,14.5c0.6,0.3,1.5,0.5,2.4,0.5c0.5,0,1-0.1,1-0.6c0-1.2-3.6-0.4-3.6-3c0-1.7,1.7-2.4,3.1-2.4
			c0.9,0,1.8,0.1,2.6,0.4l-0.2,1.8c-0.5-0.3-1.3-0.5-2-0.5c-0.5,0-1.2,0.1-1.2,0.5c0,1.1,3.8,0.2,3.8,3c0,2-1.8,2.4-3.4,2.4
			c-1.1,0-1.9-0.1-2.6-0.3L63.7,14.5z"/>
		<path class="st1" d="M70,9.3h1.5V7.6L74,6.8v2.4h1.8V11H74v2.7c0,0.9,0.2,1.3,1,1.3c0.3,0,0.5-0.1,0.8-0.1l0.1,1.6
			c-0.5,0.1-1,0.1-1.6,0.1c-2.3,0-2.8-1-2.8-2.7v-3H70L70,9.3L70,9.3z"/>
		<path class="st1" d="M89.2,16.3c-0.7,0.2-1.6,0.4-2.9,0.4c-2.6,0-5.6-1.3-5.6-5c0-3.4,2.4-5.1,5.6-5.1c1,0,2,0.2,2.9,0.5L89,9.2
			c-0.8-0.5-1.7-0.7-2.6-0.7c-1.8,0-3.1,1.3-3.1,3.2c0,1.9,1.4,3.1,3.3,3.1c0.9,0,1.7-0.2,2.4-0.5L89.2,16.3z"/>
		<path class="st1" d="M89.8,12.9c0-2.4,1.8-3.8,4.2-3.8s4.2,1.4,4.2,3.8c0,2.4-1.8,3.8-4.2,3.8S89.8,15.3,89.8,12.9z M95.7,12.9
			c0-1.1-0.5-2.1-1.6-2.1s-1.6,1-1.6,2.1c0,1.1,0.5,2,1.6,2C95.2,15,95.7,14,95.7,12.9z"/>
		<path class="st1" d="M104.1,16.6c0-0.4-0.1-0.8-0.1-1.1h0c-0.6,0.9-1.3,1.3-2.3,1.3c-1.4,0-2.7-0.7-2.7-2.3c0-2.2,2.4-2.5,3.8-2.5
			c0.4,0,0.9,0,1.2,0.1c0-1-0.8-1.3-1.7-1.3c-0.8,0-1.6,0.2-2.3,0.5l0-1.7c0.9-0.4,1.8-0.5,2.9-0.5c1.9,0,3.5,0.8,3.5,3v2.7
			c0,0.6,0,1.1,0.1,1.7L104.1,16.6L104.1,16.6z M102.4,15c1,0,1.6-0.9,1.6-1.7c-0.3,0-0.7,0-1.1,0c-0.9,0-1.5,0.3-1.5,1
			C101.3,14.8,101.8,15,102.4,15z"/>
		<path class="st1" d="M107.6,14.5c0.6,0.3,1.5,0.5,2.4,0.5c0.5,0,1-0.1,1-0.6c0-1.2-3.6-0.4-3.6-3c0-1.7,1.7-2.4,3.1-2.4
			c0.9,0,1.8,0.1,2.6,0.4l-0.2,1.8c-0.5-0.3-1.3-0.5-2-0.5c-0.5,0-1.2,0.1-1.2,0.5c0,1.1,3.8,0.2,3.8,3c0,2-1.8,2.4-3.4,2.4
			c-1.1,0-1.9-0.1-2.6-0.3L107.6,14.5z"/>
		<path class="st1" d="M114,9.3h1.5V7.6l2.5-0.8v2.4h1.8V11H118v2.7c0,0.9,0.2,1.3,1,1.3c0.3,0,0.5-0.1,0.8-0.1l0.1,1.6
			c-0.5,0.1-1,0.1-1.6,0.1c-2.3,0-2.8-1-2.8-2.7v-3H114V9.3z"/>
		<path class="st0" d="M42.1,28.9c0.8,0.4,1.9,0.8,3.2,0.8c1,0,1.9-0.2,1.9-1.1c0-2.2-5.6-0.8-5.6-5.1c0-2.8,2.8-3.6,5.1-3.6
			c1.1,0,2.2,0.2,3,0.4l-0.2,2.4c-0.8-0.4-1.7-0.5-2.6-0.5c-0.8,0-2.1,0.1-2.1,1.1c0,1.9,5.6,0.6,5.6,4.9c0,3-2.6,3.9-5.2,3.9
			c-1.1,0-2.5-0.2-3.5-0.5L42.1,28.9z"/>
		<path class="st0" d="M52.2,20h3.1v4.5h3.7V20h3.1v11.7h-3.1v-5h-3.7v5h-3.1V20z"/>
		<path class="st0" d="M64.5,20h3.1v11.7h-3.1V20z"/>
		<path class="st0" d="M69.7,20h3.7c3.6,0,5.3,1.2,5.3,3.9c0,2.4-1.7,3.8-4.7,3.8h-1.2v4.1h-3.1V20z M72.8,25.4h0.8
			c1.1,0,1.9-0.4,1.9-1.6c0-1.2-0.9-1.6-1.9-1.6h-0.8V25.4z"/>
		<path class="st0" d="M79.9,20h3.7c3.6,0,5.3,1.2,5.3,3.9c0,2.4-1.7,3.8-4.7,3.8H83v4.1h-3.1V20z M83,25.4h0.8
			c1.1,0,1.9-0.4,1.9-1.6c0-1.2-0.9-1.6-1.9-1.6H83V25.4z"/>
		<path class="st0" d="M90.4,20h3.1v11.7h-3.1V20z"/>
		<path class="st0" d="M95.8,20h4l4,8h0l0-8h2.9v11.7h-3.9l-4.1-8h0l0.1,8h-2.9C95.8,31.8,95.8,20,95.8,20z"/>
		<path class="st0" d="M119.6,31.4c-2,0.5-3.5,0.5-4.5,0.5c-3.1,0-6.7-1.6-6.7-6c0-4.4,3.1-6.1,7.4-6.1c0.8,0,2.4,0.1,3.6,0.5
			l-0.3,2.6c-1-0.6-2.1-0.8-2.9-0.8c-2.5,0-4.6,1.1-4.6,3.8c0,2.3,1.6,3.7,3.9,3.7c0.4,0,0.8-0.1,1.1-0.2v-2.3h-1.8v-2.2h4.9V31.4z"
			/>
	</g>
</g>
<g>
	<g>
		<path class="st3" d="M4,43.5v-6.1h1.6c0.3,0,0.5,0,0.7,0.1c0.2,0.1,0.4,0.2,0.6,0.3c0.2,0.1,0.3,0.3,0.4,0.5
			c0.1,0.2,0.1,0.4,0.1,0.7c0,0.3-0.1,0.5-0.2,0.7S7,40,6.8,40.1c-0.2,0.1-0.4,0.2-0.7,0.2v0c0.2,0,0.4,0.1,0.5,0.2
			c0.1,0.1,0.2,0.3,0.3,0.5l1,2.4H7.2l-0.9-2.1C6.2,41.2,6.1,41,6,40.9c-0.1-0.1-0.2-0.2-0.3-0.2c-0.1,0-0.3,0-0.5,0H4.6v2.9
			C4.6,43.5,4,43.5,4,43.5z M4.6,37.9v2.2h0.6c0.4,0,0.8-0.1,1.1-0.3s0.5-0.5,0.5-0.9c0-0.3-0.1-0.6-0.2-0.7S6.3,38,6.1,37.9
			c-0.2,0-0.5-0.1-0.8-0.1L4.6,37.9L4.6,37.9z"/>
		<path class="st3" d="M12.3,42.8v0.6c-0.2,0.1-0.4,0.1-0.6,0.2c-0.2,0-0.4,0.1-0.7,0.1c-0.7,0-1.2-0.2-1.5-0.6
			c-0.3-0.4-0.5-1-0.5-1.7c0-0.3,0-0.7,0.1-0.9c0.1-0.3,0.2-0.5,0.4-0.7c0.2-0.2,0.4-0.4,0.6-0.5c0.2-0.1,0.5-0.2,0.8-0.2
			c0.4,0,0.7,0.1,1,0.3s0.5,0.5,0.6,0.8s0.2,0.7,0.2,1.1v0.3H9.5c0,0.3,0.1,0.6,0.2,0.9s0.3,0.5,0.5,0.6c0.2,0.1,0.5,0.2,0.8,0.2
			c0.2,0,0.4,0,0.7-0.1C11.9,42.9,12.1,42.9,12.3,42.8z M9.5,40.9H12c0-0.3,0-0.5-0.1-0.8c-0.1-0.2-0.2-0.4-0.4-0.6
			c-0.2-0.1-0.4-0.2-0.6-0.2c-0.3,0-0.5,0.1-0.7,0.2C10,39.8,9.8,40,9.7,40.2C9.6,40.4,9.5,40.7,9.5,40.9z"/>
		<path class="st3" d="M14.1,43.5v-6.6h0.6v6.6H14.1z"/>
		<path class="st3" d="M16.5,38.3v-0.7H17v0.7H16.5z M16.5,43.5V39H17v4.5L16.5,43.5L16.5,43.5z"/>
		<path class="st3" d="M21.4,43.5v-0.7h0c-0.1,0.2-0.2,0.3-0.3,0.4s-0.3,0.2-0.5,0.3s-0.4,0.1-0.6,0.1c-0.4,0-0.7-0.1-0.9-0.2
			c-0.2-0.1-0.4-0.3-0.4-0.5c-0.1-0.2-0.1-0.4-0.1-0.6c0-0.4,0.1-0.6,0.3-0.9c0.2-0.2,0.4-0.4,0.7-0.5c0.3-0.1,0.5-0.2,0.8-0.2
			c0.3,0,0.6,0,1,0h0.1v-0.2c0-0.4-0.1-0.7-0.2-0.9c-0.2-0.2-0.4-0.3-0.8-0.3c-0.5,0-0.9,0.1-1.3,0.4v-0.5c0.2-0.1,0.4-0.2,0.6-0.2
			c0.3-0.1,0.5-0.1,0.7-0.1c0.4,0,0.7,0.1,0.9,0.2s0.4,0.3,0.5,0.5c0.1,0.2,0.2,0.6,0.2,1v2c0,0.2,0,0.4,0,0.6c0,0.1,0,0.3,0,0.4
			C22,43.5,21.4,43.5,21.4,43.5z M21.4,41.5v-0.3h-0.2c-0.6,0-1.1,0.1-1.5,0.2c-0.4,0.1-0.6,0.4-0.6,0.9c0,0.3,0.1,0.5,0.3,0.6
			c0.2,0.1,0.4,0.2,0.7,0.2c0.4,0,0.7-0.1,0.9-0.3c0.2-0.2,0.3-0.4,0.4-0.6C21.4,42,21.4,41.7,21.4,41.5z"/>
		<path class="st3" d="M23.6,43.5v-6.6h0.6v2.9h0c0-0.1,0.1-0.2,0.2-0.3c0.1-0.1,0.3-0.3,0.5-0.4s0.4-0.2,0.7-0.2
			c0.3,0,0.6,0.1,0.8,0.2c0.2,0.1,0.4,0.3,0.6,0.5s0.3,0.5,0.3,0.7c0.1,0.3,0.1,0.6,0.1,1c0,0.4-0.1,0.8-0.2,1.2
			c-0.1,0.4-0.3,0.6-0.6,0.8c-0.3,0.2-0.6,0.3-1,0.3c-0.3,0-0.6-0.1-0.8-0.2c-0.2-0.1-0.4-0.3-0.6-0.6h0v0.7
			C24.2,43.5,23.6,43.5,23.6,43.5z M26.8,41.2c0-0.3,0-0.6-0.1-0.9s-0.2-0.5-0.4-0.7s-0.5-0.3-0.8-0.3c-0.2,0-0.5,0.1-0.6,0.2
			s-0.3,0.3-0.4,0.4c-0.1,0.2-0.2,0.4-0.2,0.6c0,0.2-0.1,0.4-0.1,0.7c0,0.3,0,0.6,0.1,0.9c0.1,0.3,0.2,0.5,0.4,0.7
			c0.2,0.2,0.5,0.3,0.8,0.3c0.3,0,0.6-0.1,0.8-0.3c0.2-0.2,0.3-0.4,0.4-0.7C26.8,41.9,26.8,41.6,26.8,41.2z"/>
		<path class="st3" d="M29,43.5v-6.6h0.6v6.6H29z"/>
		<path class="st3" d="M34.4,42.8v0.6c-0.2,0.1-0.4,0.1-0.6,0.2c-0.2,0-0.4,0.1-0.7,0.1c-0.7,0-1.2-0.2-1.5-0.6
			c-0.3-0.4-0.5-1-0.5-1.7c0-0.3,0-0.7,0.1-0.9c0.1-0.3,0.2-0.5,0.4-0.7c0.2-0.2,0.4-0.4,0.6-0.5c0.2-0.1,0.5-0.2,0.8-0.2
			c0.4,0,0.7,0.1,1,0.3s0.5,0.5,0.6,0.8s0.2,0.7,0.2,1.1v0.3h-3.1c0,0.3,0.1,0.6,0.2,0.9s0.3,0.5,0.5,0.6c0.2,0.1,0.5,0.2,0.8,0.2
			c0.2,0,0.4,0,0.7-0.1C34.1,42.9,34.3,42.9,34.4,42.8z M31.7,40.9h2.5c0-0.3,0-0.5-0.1-0.8c-0.1-0.2-0.2-0.4-0.4-0.6
			c-0.2-0.1-0.4-0.2-0.6-0.2c-0.3,0-0.5,0.1-0.7,0.2c-0.2,0.2-0.4,0.3-0.5,0.6C31.7,40.4,31.7,40.7,31.7,40.9z"/>
		<path class="st3" d="M38.9,43.3l0.1-0.6c0.1,0.1,0.3,0.1,0.4,0.2s0.3,0.1,0.4,0.1c0.2,0,0.3,0,0.5,0c0.3,0,0.5,0,0.7-0.1
			s0.4-0.2,0.5-0.4c0.1-0.2,0.2-0.4,0.2-0.7c0-0.3-0.1-0.5-0.3-0.7c-0.2-0.2-0.6-0.4-1-0.7s-0.8-0.5-1.1-0.8
			c-0.2-0.2-0.4-0.5-0.4-0.9c0-0.2,0-0.5,0.2-0.7c0.1-0.2,0.2-0.4,0.4-0.5c0.2-0.1,0.4-0.2,0.6-0.3s0.5-0.1,0.8-0.1
			c0.4,0,0.8,0.1,1.2,0.2L42,38c-0.1-0.1-0.3-0.1-0.5-0.2c-0.2,0-0.4-0.1-0.6-0.1s-0.4,0-0.6,0.1s-0.4,0.2-0.5,0.3
			c-0.1,0.2-0.2,0.4-0.2,0.6c0,0.3,0.1,0.5,0.3,0.6c0.2,0.2,0.5,0.4,1,0.6c0.5,0.3,0.8,0.5,1.1,0.8c0.2,0.3,0.4,0.6,0.4,1
			c0,0.4-0.1,0.7-0.3,1c-0.2,0.3-0.4,0.4-0.8,0.6s-0.6,0.2-1,0.2C39.8,43.6,39.3,43.5,38.9,43.3z"/>
		<path class="st3" d="M43.9,43.5v-6.6h0.6v2.9h0c0.1-0.2,0.2-0.3,0.3-0.4c0.1-0.1,0.3-0.2,0.5-0.3c0.2-0.1,0.4-0.1,0.6-0.1
			c0.6,0,1,0.2,1.2,0.5c0.2,0.3,0.3,0.8,0.3,1.4v2.7h-0.6v-2.7c0-0.5-0.1-0.8-0.2-1.1c-0.1-0.3-0.4-0.4-0.8-0.4
			c-0.3,0-0.6,0.1-0.8,0.3c-0.2,0.2-0.3,0.4-0.4,0.6c-0.1,0.3-0.1,0.5-0.1,0.8v2.4L43.9,43.5L43.9,43.5z"/>
		<path class="st3" d="M49.2,38.3v-0.7h0.6v0.7H49.2z M49.2,43.5V39h0.6v4.5L49.2,43.5L49.2,43.5z"/>
		<path class="st3" d="M51.6,45.3V39h0.6l0,0.8h0c0.1-0.2,0.2-0.3,0.3-0.4c0.1-0.1,0.2-0.2,0.4-0.3s0.4-0.2,0.7-0.2
			c0.3,0,0.6,0.1,0.8,0.2c0.2,0.1,0.4,0.3,0.6,0.5s0.3,0.5,0.3,0.7c0.1,0.3,0.1,0.6,0.1,1c0,0.4-0.1,0.8-0.2,1.2
			c-0.1,0.4-0.3,0.6-0.6,0.8c-0.3,0.2-0.6,0.3-1,0.3c-0.3,0-0.6-0.1-0.8-0.2c-0.2-0.1-0.4-0.4-0.5-0.7h0v2.6L51.6,45.3L51.6,45.3z
			 M54.8,41.2c0-0.3,0-0.6-0.1-0.9s-0.2-0.5-0.4-0.7c-0.2-0.2-0.5-0.3-0.8-0.3c-0.3,0-0.6,0.1-0.8,0.3c-0.2,0.2-0.3,0.4-0.4,0.7
			c-0.1,0.3-0.1,0.6-0.1,0.9c0,0.3,0,0.6,0.1,0.9c0.1,0.3,0.2,0.5,0.4,0.7c0.2,0.2,0.5,0.3,0.8,0.3c0.3,0,0.6-0.1,0.8-0.3
			c0.2-0.2,0.3-0.4,0.4-0.7C54.7,41.9,54.8,41.6,54.8,41.2z"/>
		<path class="st3" d="M56.9,45.3V39h0.6l0,0.8h0c0.1-0.2,0.2-0.3,0.3-0.4c0.1-0.1,0.2-0.2,0.4-0.3s0.4-0.2,0.7-0.2
			c0.3,0,0.6,0.1,0.8,0.2c0.2,0.1,0.4,0.3,0.6,0.5s0.3,0.5,0.3,0.7c0.1,0.3,0.1,0.6,0.1,1c0,0.4-0.1,0.8-0.2,1.2
			c-0.1,0.4-0.3,0.6-0.6,0.8c-0.3,0.2-0.6,0.3-1,0.3c-0.3,0-0.6-0.1-0.8-0.2c-0.2-0.1-0.4-0.4-0.5-0.7h0v2.6L56.9,45.3L56.9,45.3z
			 M60.1,41.2c0-0.3,0-0.6-0.1-0.9s-0.2-0.5-0.4-0.7c-0.2-0.2-0.5-0.3-0.8-0.3c-0.3,0-0.6,0.1-0.8,0.3c-0.2,0.2-0.3,0.4-0.4,0.7
			c-0.1,0.3-0.1,0.6-0.1,0.9c0,0.3,0,0.6,0.1,0.9c0.1,0.3,0.2,0.5,0.4,0.7c0.2,0.2,0.5,0.3,0.8,0.3c0.3,0,0.6-0.1,0.8-0.3
			c0.2-0.2,0.3-0.4,0.4-0.7C60,41.9,60.1,41.6,60.1,41.2z"/>
		<path class="st3" d="M62.3,38.3v-0.7h0.6v0.7H62.3z M62.3,43.5V39h0.6v4.5L62.3,43.5L62.3,43.5z"/>
		<path class="st3" d="M64.6,43.5v-3.4c0-0.5,0-0.8,0-1h0.5v0.8h0c0.1-0.3,0.3-0.5,0.5-0.7c0.2-0.2,0.5-0.3,0.9-0.3
			c0.5,0,0.9,0.2,1.2,0.5s0.4,0.7,0.4,1.3v2.9h-0.6v-2.7c0-0.4-0.1-0.8-0.3-1c-0.2-0.2-0.4-0.4-0.8-0.4c-0.3,0-0.6,0.1-0.8,0.2
			c-0.2,0.2-0.3,0.4-0.4,0.6c-0.1,0.2-0.1,0.5-0.1,0.8v2.5C65.2,43.5,64.6,43.5,64.6,43.5z"/>
		<path class="st3" d="M73.5,39v4.1c0,0.7-0.2,1.2-0.5,1.6c-0.3,0.4-0.9,0.6-1.6,0.6c-0.4,0-0.8-0.1-1.4-0.2l0-0.6
			c0.4,0.2,0.8,0.3,1.3,0.3c0.3,0,0.6-0.1,0.8-0.2c0.2-0.1,0.4-0.3,0.5-0.5s0.2-0.4,0.2-0.7c0-0.3,0-0.6,0-0.9h0
			c-0.1,0.3-0.3,0.5-0.6,0.7c-0.2,0.1-0.5,0.2-0.8,0.2c-0.3,0-0.6-0.1-0.9-0.2c-0.2-0.1-0.4-0.3-0.6-0.5c-0.2-0.2-0.3-0.5-0.3-0.7
			c-0.1-0.3-0.1-0.5-0.1-0.8c0-0.3,0-0.7,0.1-1c0.1-0.3,0.2-0.5,0.3-0.7c0.1-0.2,0.3-0.4,0.6-0.5c0.2-0.1,0.5-0.2,0.8-0.2
			c0.3,0,0.6,0,0.8,0.1c0.2,0.1,0.4,0.2,0.6,0.5h0V39H73.5z M70.3,41.2c0,0.3,0,0.6,0.1,0.9s0.2,0.5,0.4,0.6s0.4,0.2,0.7,0.2
			c0.5,0,0.8-0.2,1-0.5c0.2-0.4,0.3-0.8,0.3-1.2c0-1.2-0.4-1.9-1.3-1.9c-0.3,0-0.6,0.1-0.8,0.3c-0.2,0.2-0.3,0.4-0.4,0.7
			S70.3,40.9,70.3,41.2z"/>
		<path class="st3" d="M85.7,37.4l-1.8,6.1h-0.7L81.6,38h0L80,43.5h-0.7l-1.8-6.1h0.6l1.5,5.4h0l1.6-5.4H82l1.5,5.4h0l1.5-5.4H85.7z
			"/>
		<path class="st3" d="M86.5,41.2c0-0.4,0.1-0.8,0.2-1.2s0.4-0.6,0.7-0.9c0.3-0.2,0.7-0.3,1.2-0.3s0.8,0.1,1.2,0.3
			c0.3,0.2,0.5,0.5,0.7,0.9c0.2,0.4,0.2,0.7,0.2,1.2c0,0.3,0,0.6-0.1,0.9s-0.2,0.5-0.4,0.7c-0.2,0.2-0.4,0.4-0.7,0.5
			c-0.3,0.1-0.6,0.2-0.9,0.2s-0.7-0.1-0.9-0.2c-0.3-0.1-0.5-0.3-0.7-0.5c-0.2-0.2-0.3-0.5-0.4-0.7S86.5,41.6,86.5,41.2z M87.1,41.2
			c0,0.4,0.1,0.7,0.2,0.9c0.1,0.3,0.3,0.5,0.5,0.7c0.2,0.2,0.5,0.2,0.8,0.2c0.3,0,0.6-0.1,0.8-0.2c0.2-0.2,0.4-0.4,0.5-0.7
			c0.1-0.3,0.2-0.6,0.2-0.9c0-0.3-0.1-0.7-0.2-0.9s-0.3-0.5-0.5-0.7c-0.2-0.2-0.5-0.2-0.8-0.2c-0.3,0-0.6,0.1-0.8,0.2
			s-0.4,0.4-0.5,0.7C87.2,40.6,87.1,40.9,87.1,41.2z"/>
		<path class="st3" d="M92.2,43.5V40c0-0.3,0-0.5,0-0.6s0-0.3,0-0.4h0.6v0.9h0c0.1-0.2,0.2-0.3,0.3-0.5c0.1-0.1,0.2-0.3,0.4-0.3
			c0.2-0.1,0.3-0.1,0.5-0.1c0.1,0,0.3,0,0.4,0.1v0.6c-0.1,0-0.2-0.1-0.4-0.1c-0.3,0-0.5,0.1-0.7,0.3c-0.2,0.2-0.3,0.4-0.3,0.7
			c-0.1,0.3-0.1,0.6-0.1,0.9v2.2L92.2,43.5L92.2,43.5z"/>
		<path class="st3" d="M95.5,43.5v-6.6h0.6v6.6H95.5z"/>
		<path class="st3" d="M101.5,36.9v6.6h-0.6v-0.7h0c-0.1,0.3-0.3,0.5-0.6,0.6c-0.2,0.1-0.5,0.2-0.8,0.2c-0.4,0-0.7-0.1-1-0.3
			c-0.3-0.2-0.5-0.5-0.6-0.8c-0.1-0.4-0.2-0.8-0.2-1.2c0-0.3,0-0.7,0.1-1c0.1-0.3,0.2-0.5,0.3-0.7c0.1-0.2,0.3-0.4,0.6-0.5
			c0.2-0.1,0.5-0.2,0.8-0.2c0.3,0,0.5,0.1,0.7,0.2c0.2,0.1,0.4,0.2,0.5,0.4c0.1,0.1,0.2,0.3,0.2,0.4h0v-2.9L101.5,36.9L101.5,36.9z
			 M98.3,41.2c0,0.5,0.1,1,0.3,1.3s0.5,0.5,1,0.5c0.3,0,0.6-0.1,0.8-0.3c0.2-0.2,0.3-0.4,0.4-0.7c0.1-0.3,0.1-0.6,0.1-0.9
			c0-0.3,0-0.6-0.1-0.9c-0.1-0.3-0.2-0.5-0.4-0.7c-0.2-0.2-0.4-0.3-0.8-0.3c-0.3,0-0.6,0.1-0.8,0.3c-0.2,0.2-0.3,0.4-0.4,0.7
			S98.3,40.9,98.3,41.2z"/>
		<path class="st3" d="M109.3,39l-1.5,4.5h-0.7l-1.2-3.9h0l-1.2,3.9H104l-1.4-4.5h0.6l1.2,3.9h0l1.2-3.9h0.7l1.2,3.9h0l1.2-3.9
			H109.3z"/>
		<path class="st3" d="M110.5,38.3v-0.7h0.6v0.7H110.5z M110.5,43.5V39h0.6v4.5L110.5,43.5L110.5,43.5z"/>
		<path class="st3" d="M116.4,36.9v6.6h-0.6v-0.7h0c-0.1,0.3-0.3,0.5-0.6,0.6c-0.2,0.1-0.5,0.2-0.8,0.2c-0.4,0-0.7-0.1-1-0.3
			c-0.3-0.2-0.5-0.5-0.6-0.8c-0.1-0.4-0.2-0.8-0.2-1.2c0-0.3,0-0.7,0.1-1c0.1-0.3,0.2-0.5,0.3-0.7c0.1-0.2,0.3-0.4,0.6-0.5
			c0.2-0.1,0.5-0.2,0.8-0.2c0.3,0,0.5,0.1,0.7,0.2c0.2,0.1,0.4,0.2,0.5,0.4c0.1,0.1,0.2,0.3,0.2,0.4h0v-2.9L116.4,36.9L116.4,36.9z
			 M113.2,41.2c0,0.5,0.1,1,0.3,1.3s0.5,0.5,1,0.5c0.3,0,0.6-0.1,0.8-0.3c0.2-0.2,0.3-0.4,0.4-0.7c0.1-0.3,0.1-0.6,0.1-0.9
			c0-0.3,0-0.6-0.1-0.9c-0.1-0.3-0.2-0.5-0.4-0.7c-0.2-0.2-0.4-0.3-0.8-0.3c-0.3,0-0.6,0.1-0.8,0.3c-0.2,0.2-0.3,0.4-0.4,0.7
			S113.2,40.9,113.2,41.2z"/>
		<path class="st3" d="M121.2,42.8v0.6c-0.2,0.1-0.4,0.1-0.6,0.2c-0.2,0-0.4,0.1-0.7,0.1c-0.7,0-1.2-0.2-1.5-0.6
			c-0.3-0.4-0.5-1-0.5-1.7c0-0.3,0-0.7,0.1-0.9c0.1-0.3,0.2-0.5,0.4-0.7s0.4-0.4,0.6-0.5c0.2-0.1,0.5-0.2,0.8-0.2
			c0.4,0,0.7,0.1,1,0.3c0.3,0.2,0.5,0.5,0.6,0.8s0.2,0.7,0.2,1.1v0.3h-3.1c0,0.3,0.1,0.6,0.2,0.9s0.3,0.5,0.5,0.6
			c0.2,0.1,0.5,0.2,0.8,0.2c0.2,0,0.4,0,0.7-0.1C120.9,42.9,121.1,42.9,121.2,42.8z M118.5,40.9h2.5c0-0.3,0-0.5-0.1-0.8
			c-0.1-0.2-0.2-0.4-0.4-0.6c-0.2-0.1-0.4-0.2-0.6-0.2c-0.3,0-0.5,0.1-0.7,0.2c-0.2,0.2-0.4,0.3-0.5,0.6
			C118.5,40.4,118.5,40.7,118.5,40.9z"/>
	</g>
</g>
</svg>
